<svg width="168" height="40" viewBox="0 0 168 40" fill="none" xmlns="http://www.w3.org/2000/svg">
<path d="M108.787 15.2373V23.2479H102.284V18.7719C102.284 15.144 99.7442 13.1166 96.6398 13.1166C93.2005 13.1166 92.0518 15.1694 92.0518 18.5626V24.9275H99.2533V31.9767L102.292 30.7044V24.9275L112.001 24.9078V13.8206L108.787 15.2373ZM99.2533 23.2479H93.0965V18.7068C93.0965 16.7275 94.1463 14.8866 95.853 14.8866C98.2515 14.8866 99.2383 16.0771 99.2383 18.4947L99.2533 23.2479Z" fill="#814CEB"/>
<path d="M105.965 11.9576C106.355 11.9576 106.737 11.8415 107.062 11.624C107.387 11.4065 107.64 11.0973 107.79 10.7356C107.939 10.3739 107.978 9.97585 107.902 9.59184C107.826 9.20785 107.638 8.85512 107.361 8.57827C107.085 8.30143 106.733 8.11289 106.35 8.03651C105.967 7.96013 105.57 7.99934 105.209 8.14916C104.848 8.29899 104.539 8.55271 104.322 8.87826C104.105 9.20379 103.989 9.58651 103.989 9.97804C103.989 10.503 104.197 11.0066 104.568 11.3778C104.938 11.749 105.44 11.9576 105.965 11.9576Z" fill="#814CEB"/>
<path d="M75.3024 29.1271H68.3555V30.9029H75.3024V29.1271Z" fill="#814CEB"/>
<path d="M68.293 9.28619H60.502V11.0621H68.293V9.28619Z" fill="#814CEB"/>
<path d="M85.2383 23.2836H79.7756C79.4666 23.2829 79.1697 23.1593 78.9508 22.9399C78.7318 22.7206 78.6088 22.4233 78.6078 22.1129V20.7049V20.6427C78.6078 20.5663 78.6078 20.49 78.6078 20.4108V15.703H75.4506V22.0988C75.4526 22.2537 75.4226 22.4073 75.3646 22.5507C75.3066 22.6942 75.2217 22.8248 75.1127 22.9349C75.0037 23.045 74.8747 23.1325 74.7328 23.1924C74.5898 23.2523 74.4369 23.2832 74.2819 23.2836H69.4519C69.1425 23.2829 68.8458 23.1593 68.6268 22.9399C68.408 22.7206 68.2846 22.4233 68.2837 22.1129V20.7049V20.6427C68.2837 20.5663 68.2837 20.49 68.2837 20.4108V15.703H65.3437V22.0988C65.3454 22.2537 65.3163 22.4073 65.2583 22.5507C65.2004 22.6942 65.1146 22.8248 65.0059 22.9349C64.8972 23.045 64.7682 23.1325 64.6256 23.1924C64.483 23.2523 64.3304 23.2832 64.1757 23.2836H59.3481C59.0333 23.2903 58.7202 23.2343 58.4272 23.1188C58.1342 23.0032 57.8671 22.8304 57.6414 22.6105C57.4155 22.3906 57.2357 22.1277 57.112 21.8375C56.9885 21.5473 56.9238 21.2353 56.9216 20.9197V19.7548V19.67C56.9238 18.8871 56.7716 18.1116 56.4736 17.388C56.1757 16.6642 55.7377 16.0068 55.1852 15.4534C54.6327 14.8999 53.9765 14.4614 53.2541 14.1632C52.532 13.8649 51.758 13.7126 50.9766 13.7153H43.4319L48.7928 8.34296L45.1643 8.4504L39.956 13.67L41.1184 15.3665H50.4066C51.5356 15.3829 52.6121 15.8439 53.4042 16.6497C54.1963 17.4557 54.6398 18.5417 54.6389 19.6728C54.6353 20.1478 54.5381 20.6174 54.353 21.0547C54.1675 21.4919 53.898 21.8882 53.5598 22.2208C53.2214 22.5534 52.8205 22.8158 52.3807 22.9928C51.9409 23.1698 51.4703 23.2581 50.9964 23.2525L35.7603 23.2836C35.4503 23.2836 35.1528 23.1604 34.9332 22.9409C34.7139 22.7215 34.5902 22.4238 34.5893 22.1129V20.654C34.5893 20.572 34.5893 20.4928 34.5893 20.4108V14.2638L32.0501 15.5022V22.0988C32.0519 22.253 32.0233 22.4061 31.966 22.5492C31.9086 22.6923 31.8236 22.8227 31.7158 22.9327C31.6082 23.0428 31.4797 23.1305 31.338 23.1907C31.1964 23.2509 31.0442 23.2825 30.8903 23.2836H28.0688C27.7588 23.2836 27.4614 23.1604 27.2419 22.9409C27.0224 22.7215 26.8987 22.4238 26.8979 22.1129V20.6427C26.8979 20.5663 26.8979 20.49 26.8979 20.4108V16.1272H24.3586V22.0988C24.3616 22.4072 24.2434 22.7043 24.0296 22.926C23.8157 23.1477 23.5234 23.2762 23.2159 23.2836H20.3605C20.0506 23.2836 19.7535 23.1603 19.5345 22.9407C19.3154 22.7212 19.1923 22.4235 19.1923 22.1129V16.1272H16.2355V24.7284C16.2355 26.1038 15.6902 27.4228 14.7198 28.3952C13.7494 29.3678 12.4332 29.9142 11.0608 29.9142C9.68834 29.9142 8.37215 29.3678 7.40169 28.3952C6.43132 27.4228 5.88605 26.1038 5.88605 24.7284V16.2289H4.72363V24.4146C4.72513 26.3934 5.51004 28.2907 6.90601 29.6902C8.30197 31.0898 10.195 31.877 12.1696 31.8793C16.1903 31.8793 19.0344 28.7265 19.1839 24.6973V24.5136L19.3447 24.6012C19.7444 24.8141 20.19 24.9258 20.6426 24.9264H23.2441C24.4122 24.9264 24.6773 24.4768 25.521 23.6625L25.6197 23.5692L25.696 23.6823C25.9479 24.0648 26.2907 24.3786 26.6935 24.5957C27.0963 24.8129 27.5465 24.9265 28.0039 24.9264H30.927C32.0951 24.9264 32.3604 24.4768 33.204 23.6625L33.3056 23.5692L33.3789 23.6823C33.6311 24.0648 33.9737 24.3786 34.3765 24.5957C34.7794 24.8129 35.2296 24.9265 35.6869 24.9264H51.7498C52.5805 24.9129 53.3966 24.7036 54.1319 24.3156C54.8671 23.9276 55.501 23.3716 55.9821 22.6926L56.064 22.5767L56.1233 22.7039C56.4219 23.356 56.8978 23.9104 57.4968 24.3035C58.0958 24.6966 58.7931 24.9126 59.5089 24.9264H64.2265C65.3912 24.9275 66.5105 24.4742 67.3472 23.6625L67.0115 23.5663L67.0874 23.6795C67.3387 24.0621 67.6811 24.3761 68.0834 24.5932C68.4856 24.8104 68.9356 24.924 69.3929 24.9236H74.3219C75.4876 24.9236 76.3844 24.474 77.2312 23.6597L77.3292 23.5663L77.4061 23.6795C77.6581 24.0623 78 24.3764 78.4029 24.5935C78.8058 24.8108 79.2567 24.9242 79.7136 24.9236H88.4045V13.8849L85.2383 15.2987V23.2836Z" fill="#814CEB"/>
<path d="M82.4884 31.9988H82.5314C82.9654 31.9988 83.3813 31.826 83.6883 31.5183C83.9953 31.2107 84.1673 30.7936 84.1673 30.3585V30.3161C84.1673 29.8812 83.9953 29.4639 83.6883 29.1563C83.3813 28.8487 82.9654 28.676 82.5314 28.676H82.4884C82.0545 28.676 81.6385 28.8487 81.3315 29.1563C81.0245 29.4639 80.8516 29.8812 80.8516 30.3161V30.3614C80.8516 30.7964 81.0245 31.2136 81.3315 31.5212C81.6385 31.8288 82.0545 32.0016 82.4884 32.0016" fill="#814CEB"/>
<g clip-path="url(#clip0_9597_14372)">
<path d="M160.907 19.7275C160.907 22.2985 160.637 24.6541 160.088 26.8019C159.539 28.9408 158.72 30.7863 157.63 32.3382C156.54 33.8902 155.201 35.0869 153.6 35.9447C152.443 36.562 151.15 36.9562 149.713 37.1263C146.075 33.8209 147.623 24.5382 151.479 24.091C149.803 28.6398 151.953 31.435 153.772 31.5975C157.576 31.9376 161.101 25.5813 160.854 17.8203C160.892 18.4451 160.907 19.0787 160.907 19.7275Z" fill="#B79EF4"/>
<path d="M163.066 32.3876C159.164 36.6504 153.436 39.1912 150.684 37.8005C150.324 37.6228 150 37.3911 149.715 37.1215C151.151 36.9514 152.444 36.5571 153.601 35.9399C155.203 35.0833 156.54 33.8853 157.631 32.3334C158.721 30.7815 159.541 28.936 160.089 26.7971C160.637 24.6506 160.909 22.2949 160.909 19.7227C160.909 19.0739 160.894 18.4403 160.857 17.8155V17.7928C160.819 16.6112 160.692 15.3994 160.466 14.1712C159.465 8.71928 156.39 2.3251 153.496 0.6875C154.188 0.865116 154.856 1.0969 155.519 1.36647C155.549 1.36647 155.578 1.38159 155.601 1.39796C158.668 2.69544 163.968 5.86104 166.69 12.5185C169.335 18.982 167.9 27.1296 163.066 32.3876Z" fill="#7730E8"/>
<path d="M144.517 14.9284C146.193 10.3872 144.044 7.59199 142.224 7.42949C138.548 7.09693 135.129 13.0275 135.129 20.4257C135.113 20.1939 135.113 19.9621 135.113 19.7228C135.113 17.1278 135.399 14.742 135.956 12.564C136.512 10.3784 137.339 8.49392 138.436 6.89538C139.534 5.29683 140.887 4.05352 142.48 3.15788C143.638 2.5167 144.917 2.1073 146.329 1.92969C149.907 5.27542 148.359 14.4875 144.517 14.9284Z" fill="#B79EF4"/>
<path d="M142.505 38.3383C142.031 38.2073 141.564 38.0675 141.114 37.9138C141.076 37.8987 141.039 37.8836 140.993 37.8672C140.903 37.837 140.806 37.7979 140.708 37.7589C140.618 37.7198 140.52 37.682 140.422 37.643C137.363 36.3455 132.04 33.1711 129.312 26.5073C127.305 21.6033 127.644 15.7345 130.034 10.8922C130.124 10.6995 130.222 10.5143 130.32 10.3279C130.523 9.95752 130.733 9.58718 130.967 9.23194C131.396 8.56053 131.861 7.91935 132.357 7.30084C132.522 7.10055 132.696 6.899 132.876 6.69871C132.892 6.67603 132.914 6.6521 132.936 6.62943C132.967 6.59793 132.996 6.56014 133.026 6.52865C136.936 2.33515 142.596 -0.159035 145.318 1.21529C145.693 1.40802 146.032 1.64736 146.333 1.93331C144.919 2.11092 143.642 2.52032 142.484 3.1615C140.891 4.05714 139.538 5.30046 138.44 6.899C137.343 8.49754 136.516 10.382 135.96 12.5676C135.404 14.7456 135.117 17.1315 135.117 19.7264C135.117 19.9657 135.117 20.1975 135.132 20.4293C135.132 20.6384 135.132 20.8463 135.148 21.0554C135.163 21.8351 135.223 22.6224 135.328 23.4261C135.351 23.6806 135.388 23.9275 135.433 24.1832C135.464 24.4074 135.5 24.6228 135.539 24.847C135.554 24.9478 135.577 25.0473 135.598 25.1481C135.696 25.7124 135.824 26.2604 135.959 26.8008C136.102 27.3337 136.252 27.8514 136.424 28.3528C136.439 28.4069 136.455 28.4535 136.476 28.5077C137.873 32.8788 140.249 37.0559 142.505 38.3383Z" fill="#7730E8"/>
</g>
<defs>
<clipPath id="clip0_9597_14372">
<rect width="40" height="40" fill="white" transform="translate(128)"/>
</clipPath>
</defs>
</svg>
